<?xml version="1.0" encoding="utf-8"?>
<!-- Generator: Adobe Illustrator 15.0.0, SVG Export Plug-In . SVG Version: 6.00 Build 0)  -->
<!DOCTYPE svg PUBLIC "-//W3C//DTD SVG 1.1//EN" "http://www.w3.org/Graphics/SVG/1.1/DTD/svg11.dtd">
<svg version="1.1" id="Ebene_1" xmlns="http://www.w3.org/2000/svg" xmlns:xlink="http://www.w3.org/1999/xlink" x="0px" y="0px"
	 width="128px" height="128px" viewBox="0 0 128 128" enable-background="new 0 0 128 128" xml:space="preserve">
<path fill="none" stroke="#000000" stroke-width="0.5" stroke-linecap="round" stroke-linejoin="round" d="M334.214,212.307"/>
<path fill="none" stroke="#000000" stroke-width="0.5" stroke-linecap="round" stroke-linejoin="round" d="M335.602,213.389"/>
<g>
	<path fill="#FFFFFF" d="M908.674,389.945c-0.932-4.762-4.723-9.699-13.974-6.521c-5.244,1.798-8.066,4.175-6.521,12.11
		C890.537,407.616,911.655,405.222,908.674,389.945z"/>
	<path fill="#FFFFFF" d="M921,370c-4,0-7,0-10,0c0,4,0,7,0,11c3,0,6,0,10,0C921,377,921,374,921,370z"/>
	<path fill="#FFFFFF" d="M897.405,331.375c-34.465,0-62.405,27.939-62.405,62.406c0,34.465,27.94,62.405,62.405,62.405
		c34.466,0,62.407-27.94,62.407-62.405C959.812,359.314,931.871,331.375,897.405,331.375z M924.51,418.82
		c-4.248,4.248-19.133,2.797-26.082,2.797c-5.749,0-22.45,0.837-26.083-2.797c-3.911-3.91-5.349-47.041,0-52.164
		c1.218-1.164,5.094-1.705,5.588-1.863c10.667-3.502,42.21-2.506,46.577,1.863C929.68,371.826,930.145,413.186,924.51,418.82z"/>
	<path fill="#FFFFFF" d="M921.716,386c-2.797,0-5.591,0-8.383,0c8.913,28-38.801,29-29.811,0c-2.795,0-5.59,0-8.383,0
		c0.567,9-1.164,20.528,0.932,28.054c10.861,3.056,33.851,3.001,44.712-0.055C922.879,406.474,921.146,395,921.716,386z"/>
</g>
<path fill="#FFFFFF" d="M749.405,331.375c-34.465,0-62.405,27.939-62.405,62.406c0,34.465,27.94,62.405,62.405,62.405
	c34.466,0,62.407-27.94,62.407-62.405C811.812,359.314,783.871,331.375,749.405,331.375z M782.023,371.158
	c-0.622,2.676-2.729,5.3-4.657,6.52c1.508,30.862-30.09,52.307-55.895,37.262c5.785-1.975,12.894-2.723,16.769-6.607
	C733.359,406.07,728.112,404,727.062,398c1.556,0,3.101,0,4.657,0c-4.722-3-8.877-6.566-9.314-13.888
	c2.244-0.382,2.021,1.748,4.657,0.975c-3.185-4.489-5.85-10.458-3.727-17.677c8.096,5.57,14.346,12.986,27.015,13.983
	c-1.201-13.45,14.363-23.721,23.286-13.036c3.42-0.298,5.153-2.299,8.387-2.792c-0.048,1.191-2.347,4.505-4.316,6.288
	L782.023,371.158z"/>
<path fill="#FFFFFF" d="M63.405,1.594C28.94,1.594,1,29.534,1,64c0,34.464,27.94,62.406,62.405,62.406
	c34.466,0,62.407-27.941,62.407-62.406C125.812,29.534,97.871,1.594,63.405,1.594z M76,42c-3,0-5.54,0-8.333,0
	c-1.557,2-0.934,3.358-0.932,8.727C67.042,51.23,67.573,51,68.235,52h4.056C76.049,52,72,52,76,52c0,3,0,7,0,11c-3,0-6,0-9,0
	c0,10,0,21,0,31c-5,0-9,0-13,0c0-10,0-19.812,0-30.06V63h-7c0-4,0-8,0-11c2,0,4.522,0,6.692,0C52.634,32,56,30.306,76,31.336
	C76,35.062,76,39,76,42z"/>
<g>
	<polygon fill="#FFFFFF" points="301,382 301,403 301.317,403 315.625,392.909 301.278,382 	"/>
	<path fill="#FFFFFF" d="M305.405,331.375c-34.465,0-62.405,27.939-62.405,62.406c0,34.465,27.94,62.405,62.405,62.405
		c34.466,0,62.407-27.94,62.407-62.405C367.812,359.314,339.871,331.375,305.405,331.375z M331.896,409.368
		c-13.488,4.117-38.676,4.117-52.164,0c-3.69-8.664-3.69-24.873,0-33.536c13.291-4.172,38.873-4.172,52.164,0
		C335.752,384.328,335.519,400.771,331.896,409.368z"/>
</g>
</svg>
